# xmcd
#
# Track frame offsets: 
#        150
#        17275
#        37447
#        63295
#        89567
#        111762
#        134130
#        160582
#        174677
#        192752
#
# Disc length: 2745 seconds
#
# Revision: 0
# Processed by: cddbd v1.5.2PL0 Copyright (c) Steve Scherf et al.
# Submitted via: ExactAudioCopy v0.99pb5
#
DISCID=870ab70a
DTITLE=Alexander - Play To Win
DYEAR=1996
DGENRE=Blues
TTITLE0=Sugar Mama
TTITLE1=V8 Cadillac
TTITLE2=Play To Win
TTITLE3=Steal Away
TTITLE4=Hucklebuck
TTITLE5=Got To Get Right
TTITLE6=Going Back To Amsterdam
TTITLE7=Blues Train
TTITLE8=Easy Baby
TTITLE9=The Drive
EXTD=
EXTT0=
EXTT1=
EXTT2=
EXTT3=
EXTT4=
EXTT5=
EXTT6=
EXTT7=
EXTT8=
EXTT9=
PLAYORDER=
